<svg width="1549" height="1169" viewBox="0 0 1549 1169" fill="none" xmlns="http://www.w3.org/2000/svg">
<g clip-path="url(#clip0_3_2)">
<path d="M836.046 202.022V404.533H1030.76M1030.76 838.485H530.066V202.022C530.066 202.022 758.234 132.219 863.863 202.022C903.871 228.46 925.236 247.986 957.825 281.88C990.414 315.774 1030.76 375.603 1030.76 375.603V838.485Z" fill="url(#paint0_linear_3_2)"/>
<path d="M836.046 202.022V404.533H1030.76M1030.76 838.485H530.066V202.022C530.066 202.022 758.234 132.219 863.863 202.022C903.871 228.46 925.236 247.986 957.825 281.88C990.414 315.774 1030.76 375.603 1030.76 375.603V838.485Z" stroke="url(#paint1_linear_3_2)" stroke-width="16.6667"/>
</g>
<g filter="url(#filter0_d_3_2)">
<path fill-rule="evenodd" clip-rule="evenodd" d="M606.243 796.041L569.364 662.069L532.462 796.041L385.085 829.534L532.462 863.048L569.364 997L606.243 863.048L753.643 829.534L606.243 796.041Z" fill="white"/>
<path fill-rule="evenodd" clip-rule="evenodd" d="M473.233 645.992L449.182 568.288L425.116 645.992L329 665.418L425.116 684.856L449.182 762.548L473.233 684.856L569.364 665.418L473.233 645.992Z" fill="white"/>
<path fill-rule="evenodd" clip-rule="evenodd" d="M768.074 712.978L753.643 662.069L739.203 712.978L681.534 725.706L739.203 738.441L753.643 789.343L768.074 738.441L825.752 725.706L768.074 712.978Z" fill="white"/>
</g>
<defs>
<filter id="filter0_d_3_2" x="319" y="564.288" width="516.752" height="448.712" filterUnits="userSpaceOnUse" color-interpolation-filters="sRGB">
<feFlood flood-opacity="0" result="BackgroundImageFix"/>
<feColorMatrix in="SourceAlpha" type="matrix" values="0 0 0 0 0 0 0 0 0 0 0 0 0 0 0 0 0 0 127 0" result="hardAlpha"/>
<feOffset dy="6"/>
<feGaussianBlur stdDeviation="5"/>
<feComposite in2="hardAlpha" operator="out"/>
<feColorMatrix type="matrix" values="0 0 0 0 0 0 0 0 0 0 0 0 0 0 0 0 0 0 0.25 0"/>
<feBlend mode="normal" in2="BackgroundImageFix" result="effect1_dropShadow_3_2"/>
<feBlend mode="normal" in="SourceGraphic" in2="effect1_dropShadow_3_2" result="shape"/>
</filter>
<linearGradient id="paint0_linear_3_2" x1="780.414" y1="202.022" x2="780.414" y2="838.485" gradientUnits="userSpaceOnUse">
<stop stop-color="#7F31C9"/>
<stop offset="1" stop-color="#7D599F"/>
</linearGradient>
<linearGradient id="paint1_linear_3_2" x1="780.414" y1="202.022" x2="780.414" y2="838.485" gradientUnits="userSpaceOnUse">
<stop stop-color="#7F31C9"/>
<stop offset="1" stop-color="#7D599F"/>
</linearGradient>
<clipPath id="clip0_3_2">
<rect width="788.496" height="720.524" fill="white" transform="translate(431.504 172)"/>
</clipPath>
</defs>
</svg>
